<svg width="12" height="7" viewBox="0 0 12 7" fill="none" xmlns="http://www.w3.org/2000/svg">
<path d="M11.265 1.265L6.26505 6.265C6.19473 6.33523 6.09942 6.37467 6.00005 6.37467C5.90067 6.37467 5.80536 6.33523 5.73505 6.265L0.735045 1.265C0.668805 1.19391 0.632744 1.09989 0.634458 1.00274C0.636172 0.905588 0.675528 0.812896 0.744234 0.744189C0.812941 0.675483 0.905633 0.636126 1.00278 0.634412C1.09993 0.632698 1.19396 0.66876 1.26505 0.735L6.00005 5.46937L10.735 0.735C10.8061 0.66876 10.9002 0.632698 10.9973 0.634412C11.0945 0.636126 11.1872 0.675483 11.2559 0.744189C11.3246 0.812896 11.3639 0.905588 11.3656 1.00274C11.3673 1.09989 11.3313 1.19391 11.265 1.265Z" fill="#1B2438"/>
</svg>
